<?xml version="1.0" standalone="no"?>
<!DOCTYPE svg PUBLIC "-//W3C//DTD SVG 20010904//EN"
 "http://www.w3.org/TR/2001/REC-SVG-20010904/DTD/svg10.dtd">
<svg version="1.0" xmlns="http://www.w3.org/2000/svg"
 width="219.000000pt" height="219.000000pt" viewBox="0 0 219.000000 219.000000"
 preserveAspectRatio="xMidYMid meet">
<metadata>
Created by potrace 1.11, written by Peter Selinger 2001-2013
</metadata>
<g transform="translate(0.000000,219.000000) scale(0.100000,-0.100000)"
fill="#000000" stroke="none">
<path d="M968 1595 c-2 -2 -30 -6 -64 -9 -81 -8 -223 -49 -304 -90 -54 -27
-119 -44 -182 -46 -5 0 -8 -9 -8 -21 0 -17 -4 -19 -22 -13 -34 12 -128 12
-163 2 -16 -5 -34 -10 -40 -11 -32 -7 -32 -19 -3 -134 26 -105 48 -202 65
-285 6 -30 17 -34 58 -18 52 20 74 20 80 0 6 -20 122 -130 137 -130 13 0 9
-54 -6 -92 -8 -19 -34 -53 -56 -76 -78 -78 -22 -95 106 -32 33 16 78 47 100
67 21 21 42 37 45 36 9 -3 40 -9 149 -31 71 -14 129 -18 230 -16 149 3 173 6
280 34 98 25 277 106 264 119 -2 3 10 10 26 18 26 11 35 10 54 -2 29 -19 94
-25 126 -12 46 20 72 55 76 105 4 56 4 70 1 101 -1 16 4 25 16 27 11 1 20 4
22 6 2 2 -14 32 -35 67 -37 62 -42 91 -15 91 7 0 15 3 17 8 2 4 20 20 41 35
20 15 37 31 37 35 0 4 -25 22 -55 40 l-54 33 -42 -28 c-40 -27 -42 -27 -55 -8
-43 62 -49 66 -73 64 -31 -2 -40 1 -156 57 -130 62 -199 83 -340 103 -59 9
-250 13 -257 6z"/>
</g>
</svg>
